<svg width="120" height="120" viewBox="0 0 120 120" fill="none" xmlns="http://www.w3.org/2000/svg">
<path d="M119.17 68.2501V51.1001H108.73C108.23 48.2301 107.49 45.4401 106.51 42.7601L115.53 37.5501L106.96 22.7001L97.9202 27.9201C96.0702 25.7201 94.0302 23.6801 91.8202 21.8201L97.0402 12.7801L82.1902 4.21009L76.9802 13.2401C74.3002 12.2701 71.5102 11.5301 68.6402 11.0301V0.590088H51.5002V11.0301C48.6302 11.5301 45.8402 12.2701 43.1602 13.2501L37.9502 4.23009L23.1002 12.8001L28.3202 21.8401C26.1202 23.6901 24.0802 25.7301 22.2202 27.9401L13.1802 22.7201L4.61023 37.5701L13.6402 42.7801C12.6702 45.4601 11.9302 48.2501 11.4302 51.1201H0.990234V68.2701H11.4302C11.9302 71.1401 12.6702 73.9301 13.6502 76.6101L4.63023 81.8201L13.2002 96.6701L22.2402 91.4501C24.0902 93.6501 26.1302 95.6901 28.3402 97.5501L23.1202 106.59L37.9702 115.16L43.1802 106.13C45.8602 107.1 48.6502 107.84 51.5202 108.34V118.78H68.6702V108.34C71.5402 107.84 74.3302 107.1 77.0102 106.12L82.2202 115.14L97.0702 106.57L91.8502 97.5301C94.0502 95.6801 96.0902 93.6401 97.9502 91.4301L106.99 96.6501L115.56 81.8001L106.53 76.5901C107.5 73.9101 108.24 71.1201 108.74 68.2501H119.17ZM60.0802 91.6301C42.4402 91.6301 28.1302 77.3301 28.1302 59.6801C28.1302 42.0401 42.4302 27.7301 60.0802 27.7301C77.7202 27.7301 92.0302 42.0301 92.0302 59.6801C92.0302 77.3301 77.7302 91.6301 60.0802 91.6301Z" fill="white" stroke="#1D2635" stroke-miterlimit="10" stroke-linecap="round" stroke-linejoin="round"/>
</svg>
