<svg width="252" height="294" viewBox="0 0 252 294" fill="none" xmlns="http://www.w3.org/2000/svg">
<path d="M47.2489 115.55L50.9589 169.06L27.7589 158.23L21.8789 181.74C21.8789 181.74 71.6789 209.58 76.6289 208.65C81.5789 207.72 69.2089 99.4702 69.2089 99.4702L47.2489 115.55Z" fill="#FEA900" stroke="#1D2635" stroke-miterlimit="10" stroke-linecap="round" stroke-linejoin="round"/>
<path d="M80.6798 244.63C80.6798 244.63 107.39 235.45 117.83 226.68C128.26 217.91 73.5898 111.9 73.5898 111.9C73.5898 111.9 74.4198 209.16 80.6798 244.63Z" fill="#FEA900" stroke="#1D2635" stroke-miterlimit="10" stroke-linecap="round" stroke-linejoin="round"/>
<path d="M192.509 210.38L189.419 210.84C189.439 211.03 189.459 211.19 189.449 211.3C189.219 215.27 167.749 225.84 152.589 231.56C149.279 234.13 144.839 235.42 139.259 235.42C139.209 235.42 139.159 235.41 139.109 235.41C127.409 236.54 104.939 231.39 99.8589 227.91L94.3789 283.95C95.2589 284.38 96.1589 284.8 97.0689 285.21C108.939 290.47 122.999 293.11 139.259 293.11C158.009 293.11 173.929 289.41 187.009 282C187.109 281.95 187.199 281.89 187.299 281.84C188.129 281.37 188.939 280.88 189.739 280.38C190.709 279.78 191.649 279.15 192.589 278.51C192.879 278.32 193.149 278.11 193.439 277.92C194.089 277.46 194.739 277 195.379 276.52C195.679 276.29 195.979 276.07 196.279 275.84C196.919 275.35 197.539 274.85 198.159 274.35C198.409 274.14 198.669 273.94 198.909 273.73C199.759 273.02 200.599 272.29 201.409 271.55C201.409 271.55 201.409 271.55 201.419 271.55C197.939 246.76 192.509 210.38 192.509 210.38Z" fill="#737373" stroke="#1D2635" stroke-miterlimit="10" stroke-linecap="round" stroke-linejoin="round"/>
<path d="M72.74 145.31C72.74 145.31 97.49 205.8 97.79 207.94C98.1 210.08 95.35 223.83 99.32 227.49C103.29 231.16 129.87 237.27 141.18 235.13C152.48 232.99 189.15 216.49 189.45 211.3C189.76 206.11 153.09 104.67 148.51 92.4502C143.93 80.2302 125.29 75.9502 112.76 77.1702C100.23 78.3902 69.99 86.3402 64.49 93.9702C58.99 101.62 72.74 145.31 72.74 145.31Z" fill="white" stroke="#1D2635" stroke-miterlimit="10" stroke-linecap="round" stroke-linejoin="round"/>
<path d="M74.8791 89.09C74.8791 89.09 71.8191 116.89 73.6591 122.7C75.4891 128.51 83.8291 144.47 83.8291 144.47C83.8291 144.47 97.7891 126.97 100.539 125.14C103.289 123.31 128.649 139.5 128.649 139.5C128.649 139.5 129.569 122.08 125.899 107.73C122.229 93.37 115.819 77.79 113.679 75.04C111.539 72.29 111.539 82.37 103.599 89.09C95.6591 95.81 74.8791 89.09 74.8791 89.09Z" fill="white" stroke="#1D2635" stroke-miterlimit="10" stroke-linecap="round" stroke-linejoin="round"/>
<path d="M72.6191 93.9301C72.6191 93.9301 76.2491 103.16 84.1591 114.38C92.0691 125.6 102.959 133.84 102.959 133.84C102.959 133.84 111.539 111.74 113.839 98.5502C116.149 85.3602 112.189 72.1602 112.189 72.1602C112.189 72.1602 110.539 91.9502 103.609 95.9102C96.6991 99.8702 72.6191 93.9301 72.6191 93.9301Z" fill="white" stroke="#1D2635" stroke-miterlimit="10" stroke-linecap="round" stroke-linejoin="round"/>
<path d="M90.7389 97.0202C82.0089 96.2402 72.6289 93.9302 72.6289 93.9302C72.6289 93.9302 76.2589 103.16 84.1689 114.38C84.9289 115.46 85.7289 116.51 86.5389 117.53L100.179 101.74L90.7389 97.0202Z" fill="#1D2635" stroke="#1D2635" stroke-miterlimit="10" stroke-linecap="round" stroke-linejoin="round"/>
<path d="M112.199 72.1602C112.199 72.1602 122.229 112.31 125.899 142.55C129.569 172.8 138.429 262.32 138.429 262.32C138.429 262.32 165.929 254.38 180.289 243.99C194.649 233.6 199.229 226.57 199.229 226.57C199.229 226.57 175.699 123.61 175.699 122.09C175.699 120.56 178.139 105.29 178.139 105.29C178.139 105.29 219.689 85.7402 235.579 73.8202C251.469 61.9002 247.499 55.4902 239.859 52.4302C232.219 49.3702 208.389 52.7402 195.249 56.4002C182.109 60.0702 175.389 62.5102 175.389 62.5102C175.389 62.5102 160.719 61.2902 147.279 64.3402C133.849 67.4002 112.199 72.1602 112.199 72.1602Z" fill="#FEA900" stroke="#1D2635" stroke-miterlimit="10" stroke-linecap="round" stroke-linejoin="round"/>
<path d="M133.299 174.88C132.819 176.4 132.289 178.04 131.699 179.83L133.299 174.88Z" fill="white"/>
<path d="M133.299 174.88C132.819 176.4 132.289 178.04 131.699 179.83" stroke="#1D2635" stroke-miterlimit="10" stroke-linecap="round" stroke-linejoin="round"/>
<path d="M138.008 106.88L142.698 109.87C142.698 109.87 141.148 134.21 139.028 149.59C137.748 158.85 136.638 163.93 134.568 170.79" stroke="#1D2635" stroke-miterlimit="10" stroke-linecap="round" stroke-linejoin="round"/>
<path d="M129.709 77.8901C132.789 83.5401 137.199 91.8701 137.199 93.0601C137.199 94.8901 132.619 103.45 132.619 103.45L135.479 105.27" stroke="#1D2635" stroke-miterlimit="10" stroke-linecap="round" stroke-linejoin="round"/>
<path d="M126.809 72.6201C126.809 72.6201 127.299 73.4901 128.059 74.8701L126.809 72.6201Z" fill="white"/>
<path d="M126.809 72.6201C126.809 72.6201 127.299 73.4901 128.059 74.8701" stroke="#1D2635" stroke-miterlimit="10" stroke-linecap="round" stroke-linejoin="round"/>
<path d="M183.068 207.21C179.668 209.56 174.518 212.57 167.448 215.28C153.088 220.78 150.648 221.7 150.648 221.7L152.788 229.03C152.788 229.03 177.838 224.45 189.448 211.31" stroke="#1D2635" stroke-miterlimit="10" stroke-linecap="round" stroke-linejoin="round"/>
<path d="M188.23 203.05C188.23 203.05 187.56 203.75 186.18 204.88L188.23 203.05Z" fill="white"/>
<path d="M188.23 203.05C188.23 203.05 187.56 203.75 186.18 204.88" stroke="#1D2635" stroke-miterlimit="10" stroke-linecap="round" stroke-linejoin="round"/>
<path d="M183.628 89.0603L178.148 105.28L190.978 86.0303" stroke="#1D2635" stroke-miterlimit="10" stroke-linecap="round" stroke-linejoin="round"/>
<path d="M186.09 81.7603L184.83 85.5003" stroke="#1D2635" stroke-miterlimit="10" stroke-linecap="round" stroke-linejoin="round"/>
<path d="M74.8788 89.09C74.8788 89.09 77.9388 144.7 81.2988 171.89C84.6588 199.08 90.1588 266.3 90.1588 266.3C90.1588 266.3 79.4688 265.38 72.4388 256.83C65.4088 248.28 62.0488 241.86 62.0488 241.86C62.0488 241.86 62.0488 183.81 62.0488 181.37C62.0488 178.93 57.1588 151.12 52.5788 137.37C47.9988 123.62 41.2788 107.73 45.2488 101.01C49.2188 94.2899 61.7488 84.21 66.3288 82.98C70.9088 81.76 74.5688 82.98 74.8788 89.09Z" fill="#FEA900" stroke="#1D2635" stroke-miterlimit="10" stroke-linecap="round" stroke-linejoin="round"/>
<path d="M73.1582 158.93C74.8882 164.33 76.5582 169.12 77.9282 172.2L73.1582 158.93Z" fill="white"/>
<path d="M73.1582 158.93C74.8882 164.33 76.5582 169.12 77.9282 172.2" stroke="#1D2635" stroke-miterlimit="10" stroke-linecap="round" stroke-linejoin="round"/>
<path d="M62.7193 99.6802C62.1993 103.65 61.9593 106.72 62.3493 107.12C63.5693 108.34 68.4593 112.62 68.4593 112.62C68.4593 112.62 62.3493 120.26 63.2693 124.23C63.8693 126.84 67.8993 141.98 71.9893 155.18" stroke="#1D2635" stroke-miterlimit="10" stroke-linecap="round" stroke-linejoin="round"/>
<path d="M66.0195 79.3101C66.0195 79.3101 64.4095 88.0701 63.2695 95.7601L66.0195 79.3101Z" fill="white"/>
<path d="M66.0195 79.3101C66.0195 79.3101 64.4095 88.0701 63.2695 95.7601" stroke="#1D2635" stroke-miterlimit="10" stroke-linecap="round" stroke-linejoin="round"/>
<path d="M69.5894 220.56L64.1895 218.02" stroke="#1D2635" stroke-miterlimit="10" stroke-linecap="round" stroke-linejoin="round"/>
<path d="M64.1895 209.77L79.1595 215.88V225.05L72.3094 221.83" stroke="#1D2635" stroke-miterlimit="10" stroke-linecap="round" stroke-linejoin="round"/>
<path d="M52.0479 52.3301L57.2679 65.1201C57.2679 65.1201 50.4779 58.0701 48.9079 64.3401C47.3379 70.6101 52.0379 77.9201 55.1779 77.9201C58.3079 77.9201 61.9679 78.1801 61.9679 78.1801C61.9679 78.1801 72.9379 97.5001 79.7279 101.16C86.5179 104.82 95.6579 107.95 101.398 104.82C107.138 101.69 110.278 93.0701 112.108 86.5401C113.938 80.0101 112.628 60.4301 112.628 60.4301L103.228 21.7901C103.228 21.7901 109.758 19.4401 109.758 15.0001C109.758 10.5601 94.6179 9.26014 94.6179 9.26014C94.6179 9.26014 100.628 2.21013 93.0479 1.17013C85.4779 0.130133 60.9279 14.7501 60.1479 15.2701C59.3679 15.7901 64.3279 6.13013 58.0579 9.53013C51.7879 12.9201 44.4779 29.6401 45.2679 33.5501C46.0479 37.4401 52.0479 52.3301 52.0479 52.3301Z" fill="white" stroke="#1D2635" stroke-miterlimit="10" stroke-linecap="round" stroke-linejoin="round"/>
<path d="M94.6081 9.24011C94.6081 9.24011 100.618 2.19011 93.0381 1.15011C85.4681 0.110113 60.9181 14.7301 60.1381 15.2501C59.3581 15.7701 64.3181 6.11011 58.0481 9.51011C51.7781 12.9001 44.4681 29.6201 45.2581 33.5301C46.0381 37.4501 52.0481 52.3301 52.0481 52.3301L57.2681 65.1201C57.2681 65.1201 63.2781 70.6001 61.1881 66.4301C59.0981 62.2501 54.9181 52.8501 55.9681 51.5501C57.0081 50.2401 62.2381 48.1601 62.4981 45.2801C62.7581 42.4101 57.5381 34.0501 59.1081 31.9601C60.6781 29.8701 82.8681 33.7901 86.7881 31.4401C90.7081 29.0901 85.7481 23.3501 85.7481 23.3501L103.238 21.7801C103.238 21.7801 109.768 19.4301 109.768 14.9901C109.758 10.5501 94.6081 9.24011 94.6081 9.24011Z" fill="#737373" stroke="#1D2635" stroke-miterlimit="10" stroke-linecap="round" stroke-linejoin="round"/>
<path d="M98.0081 73.7402C98.0081 73.7402 95.658 78.1802 91.998 78.4402L98.0081 73.7402Z" fill="white"/>
<path d="M98.0081 73.7402C98.0081 73.7402 95.658 78.1802 91.998 78.4402" stroke="#1D2635" stroke-miterlimit="10" stroke-linecap="round" stroke-linejoin="round"/>
<path d="M81.8177 61.7302C82.5477 63.3002 82.2377 64.9902 81.1277 65.5102C80.0177 66.0302 78.5277 65.1702 77.7977 63.6002C77.0677 62.0302 77.3777 60.3402 78.4877 59.8202C79.5977 59.3002 81.0877 60.1602 81.8177 61.7302Z" fill="#1D2635"/>
<path d="M100.939 61.047C102.15 60.8542 102.911 59.3139 102.639 57.6066C102.367 55.8994 101.165 54.6718 99.9542 54.8647C98.7433 55.0575 97.9822 56.5978 98.2541 58.3051C98.526 60.0123 99.728 61.2399 100.939 61.047Z" fill="#1D2635"/>
<path d="M91.998 88.36C91.998 88.36 96.4381 88.36 99.5681 86.01L91.998 88.36Z" fill="white"/>
<path d="M91.998 88.36C91.998 88.36 96.4381 88.36 99.5681 86.01" stroke="#1D2635" stroke-miterlimit="10" stroke-linecap="round" stroke-linejoin="round"/>
<path d="M68.7578 58.3301C68.7578 58.3301 72.4178 53.1101 82.3378 56.2401" stroke="#1D2635" stroke-width="2" stroke-miterlimit="10" stroke-linecap="round" stroke-linejoin="round"/>
<path d="M95.1387 53.3701C95.1387 53.3701 96.9686 47.3601 104.019 46.8401" stroke="#1D2635" stroke-width="2" stroke-miterlimit="10" stroke-linecap="round" stroke-linejoin="round"/>
<path d="M109.758 48.1502C109.758 48.1502 111.588 43.9702 113.678 46.5802C115.768 49.1902 116.548 54.4102 115.248 57.8102C113.938 61.2002 113.158 64.0802 113.158 64.0802L112.638 60.4202L109.758 48.1502Z" fill="white" stroke="#1D2635" stroke-miterlimit="10" stroke-linecap="round" stroke-linejoin="round"/>
<path d="M157.798 27.7801C157.798 27.7801 129.078 22.5601 127.248 22.5601C125.418 22.5601 104.008 26.4801 100.878 27.7801C97.7484 29.0901 73.9884 35.8701 74.5084 37.4401C75.0284 39.0101 77.8984 39.5301 77.8984 39.5301C77.8984 39.5301 78.4184 41.8801 86.7784 42.9201C95.1384 43.9601 114.718 41.3501 114.978 43.1801C115.238 45.0101 113.668 46.5701 113.668 46.5701L116.018 50.7501C116.018 50.7501 124.638 49.4401 127.508 47.3601C130.378 45.2701 138.478 38.7401 138.478 38.7401L155.968 40.0501L157.798 27.7801Z" fill="white" stroke="#1D2635" stroke-miterlimit="10" stroke-linecap="round" stroke-linejoin="round"/>
<path d="M94.0882 31.4399C94.0882 31.4399 82.3382 36.3999 80.5082 37.4499C78.6782 38.4899 83.8982 40.5799 87.0382 40.0599C90.1682 39.5399 102.178 34.8399 104.008 34.3199C105.838 33.7999 114.188 35.8899 120.198 36.6699C126.208 37.4499 130.378 35.6299 131.428 35.0999" fill="white"/>
<path d="M94.0882 31.4399C94.0882 31.4399 82.3382 36.3999 80.5082 37.4499C78.6782 38.4899 83.8982 40.5799 87.0382 40.0599C90.1682 39.5399 102.178 34.8399 104.008 34.3199C105.838 33.7999 114.188 35.8899 120.198 36.6699C126.208 37.4499 130.378 35.6299 131.428 35.0999" stroke="#1D2635" stroke-miterlimit="10" stroke-linecap="round" stroke-linejoin="round"/>
<path d="M228.56 69.5302C228.56 69.5302 219.39 71.9702 208.4 69.5302C197.4 67.0902 168.38 52.7302 168.38 52.7302L148.52 46.9202L153.1 23.7002C153.1 23.7002 203.21 29.8102 217.26 35.0002C231.31 40.1902 251.78 52.1102 251.17 56.3902C250.56 60.6702 239.25 69.8302 239.25 69.8302" fill="#FEA900"/>
<path d="M228.56 69.5302C228.56 69.5302 219.39 71.9702 208.4 69.5302C197.4 67.0902 168.38 52.7302 168.38 52.7302L148.52 46.9202L153.1 23.7002C153.1 23.7002 203.21 29.8102 217.26 35.0002C231.31 40.1902 251.78 52.1102 251.17 56.3902C250.56 60.6702 239.25 69.8302 239.25 69.8302" stroke="#1D2635" stroke-miterlimit="10" stroke-linecap="round" stroke-linejoin="round"/>
<path d="M56.459 169.36C56.459 169.36 74.839 190.43 90.359 183.34C105.869 176.25 113.529 130.87 113.529 130.87" stroke="#1D2635" stroke-miterlimit="10" stroke-linecap="round" stroke-linejoin="round"/>
<path d="M32.3281 153.47C32.3281 153.47 46.8781 171.66 66.2281 169.94C85.5681 168.22 92.0781 145.81 91.8881 134.7" stroke="#1D2635" stroke-miterlimit="10" stroke-linecap="round" stroke-linejoin="round"/>
<path d="M40.7196 142.081L34.5771 140.017L24.9011 168.815L31.0435 170.878L40.7196 142.081Z" fill="#7D7D7D" stroke="#1D2635" stroke-miterlimit="10" stroke-linecap="round" stroke-linejoin="round"/>
<path d="M43.4844 139.466L33.958 136.265L32.5343 140.502L42.0607 143.703L43.4844 139.466Z" fill="#1D2635" stroke="#1D2635" stroke-miterlimit="10" stroke-linecap="round" stroke-linejoin="round"/>
<path d="M54.2703 146.631L48.1279 144.567L38.4519 173.365L44.5943 175.428L54.2703 146.631Z" fill="#7D7D7D" stroke="#1D2635" stroke-miterlimit="10" stroke-linecap="round" stroke-linejoin="round"/>
<path d="M57.0313 144.026L47.5049 140.825L46.0812 145.062L55.6076 148.263L57.0313 144.026Z" fill="#1D2635" stroke="#1D2635" stroke-miterlimit="10" stroke-linecap="round" stroke-linejoin="round"/>
<path d="M52.0055 153.411L32.0996 146.722L24.7009 168.742L44.6068 175.43L52.0055 153.411Z" fill="#1D2635" stroke="#1D2635" stroke-miterlimit="10" stroke-linecap="round" stroke-linejoin="round"/>
<path d="M26.4096 183.45L7.84961 177.21L17.6896 160.96L28.3796 164.55L26.4096 183.45Z" fill="#7D7D7D" stroke="#1D2635" stroke-miterlimit="10" stroke-linecap="round" stroke-linejoin="round"/>
<path d="M26.4033 183.45L7.83398 177.21L1.21238 196.917L19.7817 203.157L26.4033 183.45Z" fill="#636363" stroke="#1D2635" stroke-miterlimit="10" stroke-linecap="round" stroke-linejoin="round"/>
<path d="M37.5355 145.959L21.5918 140.602L14.9702 160.308L30.9139 165.666L37.5355 145.959Z" fill="#636363" stroke="#1D2635" stroke-miterlimit="10" stroke-linecap="round" stroke-linejoin="round"/>
<path d="M53.5192 192.56L34.9492 186.32L44.7892 170.07L55.4792 173.66L53.5192 192.56Z" fill="#7D7D7D" stroke="#1D2635" stroke-miterlimit="10" stroke-linecap="round" stroke-linejoin="round"/>
<path d="M53.503 192.559L34.9336 186.319L28.312 206.026L46.8813 212.265L53.503 192.559Z" fill="#636363" stroke="#1D2635" stroke-miterlimit="10" stroke-linecap="round" stroke-linejoin="round"/>
<path d="M64.6351 155.059L48.6914 149.702L42.0698 169.409L58.0135 174.766L64.6351 155.059Z" fill="#636363" stroke="#1D2635" stroke-miterlimit="10" stroke-linecap="round" stroke-linejoin="round"/>
<path d="M15.2995 139.29C15.2995 139.29 13.1395 142.85 13.7695 143.87C14.4095 144.89 20.6395 148.32 21.5295 148.58C22.4195 148.83 24.8395 147.56 24.7095 145.91C24.5795 144.26 19.7495 140.69 18.2195 139.8C16.6995 138.9 15.9395 138.78 15.2995 139.29Z" fill="white" stroke="#1D2635" stroke-miterlimit="10" stroke-linecap="round" stroke-linejoin="round"/>
<path d="M11.87 146.33C11.87 146.33 10.83 150.37 11.73 151.16C12.63 151.95 19.6 153.44 20.52 153.43C21.45 153.42 23.39 151.5 22.79 149.95C22.19 148.4 16.53 146.39 14.81 145.97C13.1 145.56 12.33 145.66 11.87 146.33Z" fill="white" stroke="#1D2635" stroke-miterlimit="10" stroke-linecap="round" stroke-linejoin="round"/>
<path d="M9.9598 153.33C9.9598 153.33 8.9198 157.37 9.8198 158.16C10.7198 158.95 17.6898 160.44 18.6098 160.43C19.5398 160.42 21.4798 158.5 20.8798 156.95C20.2798 155.4 14.6198 153.39 12.8998 152.97C11.1898 152.56 10.4298 152.66 9.9598 153.33Z" fill="white" stroke="#1D2635" stroke-miterlimit="10" stroke-linecap="round" stroke-linejoin="round"/>
<path d="M10.8504 160.07C10.8504 160.07 9.81042 164.11 10.7104 164.9C11.6104 165.69 18.5804 167.18 19.5004 167.17C20.4304 167.16 22.3704 165.24 21.7804 163.69C21.1804 162.14 15.5204 160.13 13.8004 159.71C12.0804 159.3 11.3204 159.4 10.8504 160.07Z" fill="white" stroke="#1D2635" stroke-miterlimit="10" stroke-linecap="round" stroke-linejoin="round"/>
</svg>
